<?xml version="1.0" encoding="UTF-8"?>
<svg xmlns="http://www.w3.org/2000/svg" xmlns:xlink="http://www.w3.org/1999/xlink" viewBox="0 0 3710 3710">
  <defs>
    <style>
      .cls-1 {
        fill: url(#linear-gradient-2);
      }

      .cls-2 {
        opacity: .45;
      }

      .cls-2, .cls-3, .cls-4, .cls-5, .cls-6, .cls-7, .cls-8, .cls-9 {
        fill: #fff;
      }

      .cls-10 {
        fill: url(#linear-gradient-17);
      }

      .cls-11 {
        fill: url(#linear-gradient-15);
      }

      .cls-4 {
        opacity: .39;
      }

      .cls-12 {
        fill: url(#linear-gradient-18);
      }

      .cls-13 {
        fill: url(#linear-gradient-28);
      }

      .cls-14 {
        fill: url(#linear-gradient-14);
      }

      .cls-15 {
        fill: url(#linear-gradient-20);
      }

      .cls-16 {
        fill: url(#linear-gradient-6);
      }

      .cls-5 {
        opacity: .5;
      }

      .cls-17 {
        fill: #686654;
      }

      .cls-18 {
        fill: url(#linear-gradient-11);
      }

      .cls-19 {
        fill: url(#Dégradé_sans_nom_40-4);
      }

      .cls-6 {
        opacity: .42;
      }

      .cls-20 {
        fill: url(#linear-gradient-10);
      }

      .cls-7 {
        opacity: .55;
      }

      .cls-21 {
        fill: #91b3fa;
      }

      .cls-8 {
        opacity: .7;
      }

      .cls-22 {
        fill: url(#linear-gradient-16);
      }

      .cls-23 {
        fill: url(#Dégradé_sans_nom_40-5);
      }

      .cls-24 {
        fill: #7d97f4;
      }

      .cls-25 {
        fill: url(#Dégradé_sans_nom_40-3);
      }

      .cls-26 {
        fill: url(#linear-gradient-21);
      }

      .cls-27 {
        fill: url(#linear-gradient-25);
      }

      .cls-28 {
        fill: url(#Dégradé_sans_nom_40-6);
      }

      .cls-29 {
        fill: url(#linear-gradient-5);
      }

      .cls-30 {
        fill: url(#Dégradé_sans_nom_3);
      }

      .cls-31 {
        fill: url(#linear-gradient-7);
      }

      .cls-32 {
        fill: url(#Dégradé_sans_nom_40-2);
      }

      .cls-33 {
        fill: url(#linear-gradient-24);
      }

      .cls-34 {
        fill: url(#linear-gradient-9);
      }

      .cls-35 {
        fill: url(#linear-gradient-22);
      }

      .cls-36 {
        fill: url(#linear-gradient-3);
      }

      .cls-37 {
        fill: url(#linear-gradient);
      }

      .cls-9 {
        opacity: .78;
      }

      .cls-38 {
        fill: url(#linear-gradient-27);
      }

      .cls-39 {
        fill: url(#Dégradé_sans_nom_40);
      }

      .cls-40 {
        fill: #bdd0fb;
      }

      .cls-41 {
        fill: url(#linear-gradient-23);
      }

      .cls-42 {
        fill: url(#linear-gradient-19);
      }

      .cls-43 {
        fill: url(#linear-gradient-4);
      }

      .cls-44 {
        fill: url(#linear-gradient-8);
      }

      .cls-45 {
        fill: url(#linear-gradient-12);
      }

      .cls-46 {
        fill: url(#linear-gradient-13);
      }

      .cls-47 {
        fill: url(#linear-gradient-26);
      }
    </style>
    <linearGradient id="linear-gradient" x1="3610.38" y1="4071.4" x2="1134.67" y2="996.72" gradientUnits="userSpaceOnUse">
      <stop offset="0" stop-color="#dae3fe"/>
      <stop offset="1" stop-color="#e9effd"/>
    </linearGradient>
    <linearGradient id="linear-gradient-2" x1="-942.1" y1="2917.47" x2="-376.82" y2="1221.62" gradientTransform="translate(1155.78) rotate(-180) scale(1 -1)" gradientUnits="userSpaceOnUse">
      <stop offset="0" stop-color="#09005d"/>
      <stop offset="1" stop-color="#1a0f91"/>
    </linearGradient>
    <linearGradient id="Dégradé_sans_nom_3" data-name="Dégradé sans nom 3" x1="1496.51" y1="-394.12" x2="1608.33" y2="393.7" gradientUnits="userSpaceOnUse">
      <stop offset="0" stop-color="#ff928e"/>
      <stop offset=".91" stop-color="#fe7062"/>
    </linearGradient>
    <linearGradient id="linear-gradient-3" x1="1870.6" y1="939.67" x2="1860.42" y2="2334.27" gradientTransform="translate(3710 6153.93) rotate(-180)" xlink:href="#linear-gradient-2"/>
    <linearGradient id="linear-gradient-4" x1="2375.26" y1="2158.69" x2="-1546.72" y2="2789.52" gradientUnits="userSpaceOnUse">
      <stop offset="0" stop-color="#e1473d"/>
      <stop offset="1" stop-color="#e9605a"/>
    </linearGradient>
    <linearGradient id="linear-gradient-5" x1="2381.47" y1="2197.31" x2="-1540.51" y2="2828.14" xlink:href="#linear-gradient-4"/>
    <linearGradient id="linear-gradient-6" x1="1379.54" y1="1042.67" x2="3117.07" y2="941.33" xlink:href="#linear-gradient-4"/>
    <linearGradient id="linear-gradient-7" x1="1379.68" y1="1045.23" x2="3117.21" y2="943.89" xlink:href="#linear-gradient-4"/>
    <linearGradient id="linear-gradient-8" x1="-3002.38" y1="-326.52" x2="-3307.36" y2="886.62" gradientTransform="translate(-752.82) rotate(-180) scale(1 -1)" gradientUnits="userSpaceOnUse">
      <stop offset="0" stop-color="#4f52ff"/>
      <stop offset="1" stop-color="#4042e2"/>
    </linearGradient>
    <linearGradient id="linear-gradient-9" x1="-2745.82" y1="-262.02" x2="-3050.79" y2="951.11" xlink:href="#linear-gradient-8"/>
    <linearGradient id="linear-gradient-10" x1="3870.47" y1="1537.36" x2="3535.01" y2="2065.96" gradientTransform="matrix(1,0,0,1,0,0)" xlink:href="#linear-gradient-8"/>
    <linearGradient id="linear-gradient-11" x1="3430.67" y1="949.83" x2="3079.96" y2="1493.68" gradientTransform="matrix(1,0,0,1,0,0)" xlink:href="#linear-gradient-8"/>
    <linearGradient id="Dégradé_sans_nom_40" data-name="Dégradé sans nom 40" x1="2481.41" y1="1798.1" x2="2651.83" y2="1798.1" gradientUnits="userSpaceOnUse">
      <stop offset="0" stop-color="#ff928e"/>
      <stop offset="1" stop-color="#24201e"/>
      <stop offset="1" stop-color="#1d1d1b"/>
    </linearGradient>
    <linearGradient id="linear-gradient-12" x1="2540.46" y1="2143.4" x2="3186.16" y2="2143.4" gradientTransform="matrix(1,0,0,1,0,0)" xlink:href="#linear-gradient-8"/>
    <linearGradient id="Dégradé_sans_nom_40-2" data-name="Dégradé sans nom 40" x1="2373.64" y1="2134.38" x2="2562.31" y2="2134.38" xlink:href="#Dégradé_sans_nom_40"/>
    <linearGradient id="Dégradé_sans_nom_40-3" data-name="Dégradé sans nom 40" x1="-2988.65" y1="1955.25" x2="-3226.57" y2="2251.25" gradientTransform="translate(-752.82) rotate(-180) scale(1 -1)" xlink:href="#Dégradé_sans_nom_40"/>
    <linearGradient id="Dégradé_sans_nom_40-4" data-name="Dégradé sans nom 40" x1="2773.96" y1="1830.38" x2="2908.56" y2="1830.38" xlink:href="#Dégradé_sans_nom_40"/>
    <linearGradient id="Dégradé_sans_nom_40-5" data-name="Dégradé sans nom 40" x1="2730" y1="1733.51" x2="2859.44" y2="1733.51" xlink:href="#Dégradé_sans_nom_40"/>
    <linearGradient id="linear-gradient-13" x1="-3155.79" y1="1711.37" x2="-2967.52" y2="1711.37" gradientTransform="translate(1270.6 -1428.5) rotate(-144.78) scale(1 -1)" xlink:href="#linear-gradient-2"/>
    <linearGradient id="Dégradé_sans_nom_40-6" data-name="Dégradé sans nom 40" x1="-3266.26" y1="1826.19" x2="-3139.84" y2="1696.49" gradientTransform="translate(1270.6 -1428.5) rotate(-144.78) scale(1 -1)" xlink:href="#Dégradé_sans_nom_40"/>
    <linearGradient id="linear-gradient-14" x1="2256.43" y1="1215.98" x2="1739.04" y2="2312.84" gradientTransform="translate(5.69 -6.43) rotate(.18)" xlink:href="#linear-gradient-8"/>
    <linearGradient id="linear-gradient-15" x1="8495.37" y1="5781.83" x2="8375.54" y2="7323.61" gradientTransform="translate(142.25 -8409.95) rotate(44.82)" gradientUnits="userSpaceOnUse">
      <stop offset="0" stop-color="#50e7b7"/>
      <stop offset="1" stop-color="#323992"/>
    </linearGradient>
    <linearGradient id="linear-gradient-16" x1="8480.25" y1="5795.97" x2="8360.43" y2="7337.75" gradientTransform="translate(147.87 -8395.13) rotate(44.82)" xlink:href="#linear-gradient-15"/>
    <linearGradient id="linear-gradient-17" x1="8356.42" y1="4391.33" x2="8386.86" y2="5182.89" gradientTransform="translate(-6383.52 -2525.54)" xlink:href="#linear-gradient-8"/>
    <linearGradient id="linear-gradient-18" x1="8363.58" y1="4194.3" x2="8243.75" y2="5736.07" gradientTransform="translate(-929.15 -7153.61) rotate(44.71)" xlink:href="#linear-gradient-8"/>
    <linearGradient id="linear-gradient-19" x1="7991.69" y1="4480.44" x2="8002.95" y2="4163.02" gradientTransform="translate(3907.55 -6991.8) rotate(76.15)" xlink:href="#linear-gradient-8"/>
    <linearGradient id="linear-gradient-20" x1="8735.89" y1="4506.84" x2="8747.14" y2="4189.42" gradientTransform="translate(4939.13 -7603.81) rotate(78.96)" xlink:href="#linear-gradient-8"/>
    <linearGradient id="linear-gradient-21" x1="1601.47" y1="-409.03" x2="1713.29" y2="378.79" gradientTransform="translate(2077.52 -957.2) rotate(61.85)" gradientUnits="userSpaceOnUse">
      <stop offset="0" stop-color="#ff928e"/>
      <stop offset="1" stop-color="#fe7062"/>
    </linearGradient>
    <linearGradient id="linear-gradient-22" x1="1601.47" y1="-409.03" x2="1713.29" y2="378.79" gradientTransform="translate(1426.02 -931.74) rotate(45)" xlink:href="#linear-gradient-21"/>
    <linearGradient id="linear-gradient-23" x1="1909.14" y1="-452.7" x2="2020.96" y2="335.12" gradientTransform="translate(1425.52 -1177.45) rotate(45)" xlink:href="#linear-gradient-21"/>
    <linearGradient id="linear-gradient-24" x1="1909.14" y1="-452.7" x2="2020.96" y2="335.12" gradientTransform="translate(1425.52 -1177.45) rotate(45)" xlink:href="#linear-gradient-21"/>
    <linearGradient id="linear-gradient-25" x1="1975.34" y1="-462.09" x2="2087.16" y2="325.73" gradientTransform="translate(1748.36 -1147.27) rotate(45)" xlink:href="#linear-gradient-21"/>
    <linearGradient id="linear-gradient-26" x1="1975.34" y1="-462.09" x2="2087.16" y2="325.73" gradientTransform="translate(1748.36 -1147.27) rotate(45)" xlink:href="#linear-gradient-21"/>
    <linearGradient id="linear-gradient-27" x1="2245.19" y1="-500.4" x2="2357.01" y2="287.42" gradientTransform="matrix(1,0,0,1,0,0)" xlink:href="#linear-gradient-21"/>
    <linearGradient id="linear-gradient-28" x1="2245.19" y1="-500.4" x2="2357.01" y2="287.43" gradientTransform="translate(1638.8 -1390.84) rotate(45)" xlink:href="#linear-gradient-21"/>
  </defs>
  <g id="Background">
    <rect class="cls-3" width="3710" height="3710"/>
  </g>
  <g id="Illustration">
    <g>
      <path class="cls-37" d="m2929.29,2858.86c-56.87,59.87-110.67,98.47-153.18,128.98-499.71,358.55-1091,254.03-1216.67,228.51-185.57-37.69-544.27-110.54-803.6-415.52-392.35-461.4-331.26-1188.31-26.92-1668.16,55.67-87.77,349.72-574.93,947.38-653.05,361.7-47.28,783.32,48.08,1088.65,303.88,640.91,536.95,595.28,1621.7,164.35,2075.37Z"/>
      <g>
        <path class="cls-40" d="m724.94,527.62c-62.1,186.72-379.14,1288.11,600.94,1771.26,0,0,395.37-671.35-572.63-1777.02-8.47-9.67-24.25-6.44-28.3,5.76Z"/>
        <path class="cls-2" d="m751.05,743.82c12.7,61.61,26.66,122.89,41.15,184.06,14.52,61.16,29.75,122.16,45.68,182.97,31.87,121.62,66.46,242.56,104.77,362.37,38.39,119.76,80.29,238.5,128.62,354.76,23.98,58.2,50.08,115.56,78.35,171.88,28.35,56.27,58.98,111.53,93.95,164.22,2.07,3.11,6.26,3.96,9.38,1.9,3.11-2.07,3.96-6.27,1.9-9.38l-.02-.03-.02-.02c-34.82-51.88-65.51-106.58-93.98-162.35-28.4-55.84-54.68-112.81-78.87-170.68-48.76-115.6-91.19-233.88-130.13-353.24-38.86-119.41-74.04-240.03-106.51-361.37-16.24-60.67-31.76-121.54-46.59-182.57-14.79-61.03-29.07-122.23-42.06-183.64v-.03c-.33-1.55-1.85-2.54-3.4-2.21-1.54.33-2.53,1.84-2.21,3.38Z"/>
      </g>
      <g>
        <path class="cls-40" d="m1142.29,2353.98s36.41-188.99-112.19-420.05c-137.88-214.39-482.26-715.81-533.3-963.51-2.26-10.97-17.78-11.2-20.24-.27-26.4,117.24-69.43,416.06,70.82,752.37,180.85,433.7,594.91,631.46,594.91,631.46Z"/>
        <path class="cls-2" d="m520.24,1195.46c-2.17,26.5-1.04,53.18,1.57,79.63.31,3.31.55,6.63.91,9.94l1.28,9.89,2.57,19.79,3.39,19.67c1.19,6.55,2.11,13.15,3.7,19.62,10.98,52.08,26.21,103.35,45.85,152.88,4.41,12.59,10.11,24.64,15.36,36.89l7.99,18.32c1.37,3.03,2.57,6.15,4.09,9.12l4.43,8.95,17.74,35.81c2.83,6.04,6.28,11.75,9.5,17.57l9.79,17.42,9.79,17.42,4.92,8.69,5.32,8.45,21.27,33.82c3.59,5.6,7,11.35,10.73,16.84l11.17,16.5,22.34,32.99,22.71,32.74c7.6,10.89,15.1,21.85,22.86,32.63,15.37,21.66,30.87,43.22,46.6,64.61,15.6,21.49,31.54,42.72,47.37,64.04l48.13,63.43c32.12,42.24,64.31,84.4,95.02,127.53,7.83,10.69,15.11,21.73,22.59,32.65,3.81,5.42,7.23,11.07,10.78,16.65,3.5,5.61,7.15,11.13,10.52,16.81,6.49,11.5,13.42,22.78,19.09,34.71l4.48,8.84c.73,1.48,1.54,2.93,2.2,4.44l1.93,4.56,7.74,18.24.03.07c.31.73,1.15,1.07,1.88.76.7-.3,1.04-1.1.79-1.81-9-25.11-20.67-49.16-33.77-72.36-3.26-5.8-6.81-11.43-10.2-17.16-3.45-5.69-6.78-11.47-10.47-16.99-7.26-11.14-14.34-22.42-21.95-33.32l-11.24-16.47c-3.79-5.46-7.7-10.82-11.55-16.24l-11.59-16.21-11.74-16.09c-15.62-21.48-31.48-42.76-47.24-64.1-31.56-42.66-63.12-85.28-94.19-128.24-31.13-42.92-61.57-86.32-91.65-129.96l-22.27-32.93-11.13-16.47c-3.72-5.48-7.14-11.12-10.72-16.68l-21.27-33.44-5.32-8.36-4.92-8.6-9.8-17.22c-26.73-45.6-49.54-93.39-69.83-142.16-20.49-48.72-36.63-99.27-48.59-150.77-1.71-6.39-2.74-12.93-4.16-19.39l-4-19.44-3.18-19.58-1.59-9.8c-.46-3.27-.81-6.56-1.22-9.85-.74-6.57-1.69-13.13-2.27-19.72l-1.57-19.8c-.63-13.21-1.37-26.48-.64-39.72.01-.1-.06-.19-.16-.2-.1-.01-.18.07-.2.16Z"/>
      </g>
      <g>
        <path class="cls-1" d="m638.27,2978.99c0,24.32,19.92,44.22,44.26,44.22h2393.46c24.34,0,44.26-19.9,44.26-44.22l19.92-1375.46c0-24.32-28.65-71.8-81.17-68.23l-2339.15-60.53c-30.54-.79-60.08,10.97-81.71,32.53s-33.46,51.04-32.74,81.55l32.87,1390.14Z"/>
        <path class="cls-30" d="m681.97,2936.57c0,23.03,18.84,41.87,41.87,41.87h2294.43c23.03,0,41.87-18.84,41.87-41.87l18.79-1248.65c-2.21-75.14-68.09-102.15-108.02-100.55l-2241.87-60.15c-21.46-.58-42.21,7.69-57.4,22.85-15.2,15.16-23.56,35.91-23.02,57.37l33.34,1329.13Z"/>
        <rect class="cls-36" x="444.1" y="3016.54" width="2821.79" height="120.85" rx="5.65" ry="5.65" transform="translate(3710 6153.93) rotate(180)"/>
      </g>
      <g>
        <path class="cls-21" d="m2589.64,524.68l-1660.88-10.17c-54.58-.33-98.24,45.26-95.54,99.78l114.26,2359.72h1848.25l102.62-2108.28-308.72-341.05Z"/>
        <path class="cls-40" d="m2658.7,855.62c-54.1-1.9-95.7-48.53-91.43-102.5l17.8-225.33,313.61,336.55-239.98-8.72Z"/>
        <g>
          <path class="cls-4" d="m2597.39,1722.51h-1440.77c-43.47,0-79.07-19.86-80.4-44.85l-30.1-568.3c-1.38-26.09,35.02-47.67,80.4-47.67h1470.88c44.42,0,80.44,20.71,80.44,46.26v568.3c0,25.55-36.01,46.26-80.44,46.26Z"/>
          <path class="cls-3" d="m2595.08,1727.6h-1440.77c-46.45,0-84-21.81-85.47-49.66l-30.1-568.3c-.51-9.64,3.33-19.08,11.12-27.28,15.05-15.87,43.54-25.73,74.35-25.73h1470.88c47.95,0,85.52,22.55,85.52,51.34v568.3c0,28.79-37.56,51.34-85.52,51.34Zm-1470.88-660.81c-28.12,0-53.78,8.64-66.98,22.56-5.9,6.22-8.71,12.87-8.34,19.75l30.1,568.3c1.17,22.08,34.96,40.03,75.32,40.03h1440.77c40.85,0,75.35-18.86,75.35-41.18v-568.3c0-22.32-34.51-41.17-75.35-41.17h-1470.88Z"/>
          <rect class="cls-3" x="1135.34" y="1384.76" width="665.35" height="10.17" transform="translate(70.55 2850.6) rotate(-89.7)"/>
          <rect class="cls-3" x="1982.51" y="1384.76" width="665.35" height="10.17" transform="translate(913.31 3697.76) rotate(-89.7)"/>
          <rect class="cls-3" x="2067.51" y="642.86" width="10.17" height="1205.85" transform="translate(816.67 3312.26) rotate(-89.72)"/>
          <rect class="cls-3" x="1466.35" y="1499.12" width="1209.05" height="10.17"/>
        </g>
        <g>
          <path class="cls-4" d="m2599.86,2827.21h-1440.77c-43.47,0-79.07-19.86-80.4-44.85l-30.1-568.3c-1.38-26.09,35.02-47.67,80.4-47.67h1470.88c44.42,0,80.44,20.71,80.44,46.26v568.3c0,25.55-36.01,46.26-80.44,46.26Z"/>
          <path class="cls-3" d="m2597.55,2832.3h-1440.77c-46.45,0-84-21.81-85.47-49.66l-30.1-568.3c-.51-9.64,3.33-19.08,11.12-27.28,15.05-15.87,43.54-25.73,74.36-25.73h1470.88c47.95,0,85.52,22.55,85.52,51.34v568.3c0,28.79-37.57,51.34-85.52,51.34Zm-1470.88-660.81c-28.12,0-53.78,8.64-66.98,22.56-5.9,6.22-8.71,12.87-8.34,19.75l30.1,568.3c1.17,22.08,34.96,40.03,75.32,40.03h1440.77c40.85,0,75.35-18.86,75.35-41.18v-568.3c0-22.32-34.51-41.17-75.35-41.17h-1470.88Z"/>
          <rect class="cls-3" x="1137.8" y="2489.46" width="665.35" height="10.17" transform="translate(-1031.68 3952.02) rotate(-89.7)"/>
          <rect class="cls-3" x="1984.97" y="2489.46" width="665.35" height="10.17" transform="translate(-188.92 4799.18) rotate(-89.7)"/>
          <rect class="cls-3" x="2069.98" y="1747.56" width="10.17" height="1205.86" transform="translate(-285.56 4414.01) rotate(-89.72)"/>
          <rect class="cls-3" x="1468.82" y="2603.82" width="1209.05" height="10.17"/>
        </g>
        <rect class="cls-7" x="1163.48" y="832.32" width="1362.24" height="116.96" rx="7.76" ry="7.76"/>
        <rect class="cls-6" x="1080.47" y="1832.69" width="1577.06" height="88.1" rx="6.9" ry="6.9"/>
        <rect class="cls-6" x="1075.89" y="1968.24" width="1577.06" height="88.1" rx="6.9" ry="6.9"/>
      </g>
      <g>
        <g>
          <path class="cls-43" d="m2082.37,2259.73c-195.37,111.12-358.47,104.19-542.89,7.27-11.93-6.27-19.19-18.86-18.55-32.33l.37-7.8c1.14-23.85,25.51-39.42,47.62-30.41,160.15,65.26,280.59,101.05,481.12,2.09,22.07-10.89,48.13,4.19,49.78,28.75h0c.89,13.26-5.9,25.86-17.45,32.43Z"/>
          <path class="cls-29" d="m2045.35,2349.79l107.85-152.85c3.28-4.66.41-11.13-5.24-11.82l-178.64-21.86c-6.65-.81-11.7,5.85-9.12,12.03,40.81,56.61,63.79,114.37,72.09,173.06,2.27,5.46,9.66,6.27,13.07,1.44Z"/>
        </g>
        <g>
          <path class="cls-16" d="m1473.24,1036.27c196.68-121.49,364.59-120.44,557.77-27.68,12.5,6,20.43,18.67,20.27,32.54l-.09,8.03c-.28,24.55-24.76,41.46-47.82,33.03-167.04-61.12-292.18-93.42-494.62,15.76-22.28,12.02-49.63-2.52-52.24-27.7h0c-1.41-13.6,5.1-26.8,16.73-33.98Z"/>
          <path class="cls-31" d="m1507.94,942.33l-105.17,161.13c-3.2,4.91-.01,11.46,5.83,11.96l184.44,15.82c6.86.59,11.81-6.45,8.93-12.7-44.06-56.67-69.83-115.18-80.54-175.21-2.54-5.52-10.17-6.09-13.49-1Z"/>
        </g>
        <g>
          <path class="cls-44" d="m3187.29,3174.03s12.63,19.91,15.81,75.67c.3,5.19-3.82,9.62-9.02,9.62h-98.81c-3.98,0-6.81-3.9-5.54-7.66,5.79-17.14,23.3-58.92,62.36-82.79l35.2,5.17Z"/>
          <path class="cls-17" d="m3191.58,3136.25l-5.59,46.86c-.48,4.04-3.65,7.28-7.7,7.74-5.4.62-13.26,1.06-20.89-.2-6.94-1.14-11.93-7.32-11.93-14.36v-45.24l46.11,5.19Z"/>
          <path class="cls-34" d="m2942.83,3168.86s18.91,29.4,18.51,69.74c-.1,9.5-8.05,17.07-17.56,17.07h-153.46c-7.19,0-10.1-9.23-4.22-13.36,29.04-20.39,86.11-58.48,127.39-73.46h29.34Z"/>
          <path class="cls-17" d="m2958.63,3118.26l-11.92,57.87c-1.33,6.47-7.67,10.83-14.12,9.39-3.92-.88-8.55-2.55-13.49-5.64-4.7-2.94-7.08-8.53-6.12-13.98l12.33-70.11,33.32,22.48Z"/>
          <path class="cls-20" d="m3169.69,2313.63s41.45,36.54,49.25,80.5c7.8,43.96-22.1,758.49-22.1,758.49,0,0-41.44,6.9-62.81-6.05,0,0-25.34-463.72-44.6-570.88,0,0-101.01,480.36-129,567.15,0,0-39.93,4.86-52.8-2.74,0,0,26.46-622.68,59.71-733.38l202.36-93.09Z"/>
          <path class="cls-24" d="m3090.63,2560.28c-.35,0-.7-.04-1.06-.14-2.22-.58-3.55-2.85-2.97-5.07l17.6-67.53c.27-1.01.9-1.89,1.78-2.45l38.04-24.4c1.94-1.24,4.51-.68,5.75,1.26,1.24,1.93.68,4.51-1.25,5.75l-36.67,23.52-17.19,65.96c-.49,1.87-2.17,3.11-4.02,3.11Z"/>
          <path class="cls-18" d="m2760.68,1900.76c174.47-14.48,220.08,21.62,220.08,21.62l-83.85,132.37s-171.44-3.39-294.28-98.07c22.99-24.76,38.96-52.12,49.2-73.43,31.68,13.16,68.16,20.88,108.85,17.5Z"/>
          <path class="cls-39" d="m2487.46,1644.65c.24-5.59,7.81-7.11,10.19-2.05l22.26,47.51c4.3,9.18,5.68,19.46,3.95,29.45l-7.81,27.65c-2.34,13.49,1.19,27.3,9.73,37.99,20.46,25.57,64.02,72.28,126.05,98.05-10.24,21.31-26.21,48.67-49.2,73.43-45.07-34.74-83.61-81.75-104.73-145.43-10.12-3.11-16.88-12.63-16.48-23.21l6.03-143.39Z"/>
          <path class="cls-45" d="m2703.25,1977.5c61.42-66.18,178.42-96.09,246.15-108.37,29.68-5.38,58.93,11.13,69.44,39.4,30.48,81.94,113.39,295.13,129.45,331.77,13.18,30.06,26.95,59.42,35.7,77.77,5.23,10.96.66,24.09-10.28,29.36-56.99,27.47-159.54,58.55-201.11,70.67-9.14,2.67-18.25-4.2-18.25-13.72,0-8.08-2.2-16.01-6.35-22.93l-157.45-262.38c-98.14,108.81-184.08,118.76-250.1,94.95,11.1-34.31,18.36-68.68,21.85-103.12,97.53-16.71,140.95-133.39,140.95-133.39Z"/>
          <path class="cls-32" d="m2373.64,2073.39l31.88-18.64c56.98,39.13,117.79,62.83,156.78,56.15-3.48,34.44-10.75,68.81-21.85,103.12-86.98-31.38-166.82-140.62-166.82-140.62Z"/>
          <path class="cls-25" d="m2222.21,2080.1c19.83-10.79,78.67-20.07,78.67-20.07,0,0,67.63-39.57,87.1-47.36,16.17-6.47,23.13,17.72,25.02,26.1.39,1.71.56,2.76.56,2.76l-2.5,16.08-68.32,30.36c-14.62,6.5-30.76,8.84-46.63,6.76l-72.95-9.54c-1.17-.15-2.11-1.04-2.33-2.21-.22-1.16.34-2.33,1.38-2.89Z"/>
          <path class="cls-19" d="m2856.24,1747.58l52.32,127.67s-60.12,41.61-108.48,37.65l-26.11-114.8,82.27-50.52Z"/>
          <g>
            <path class="cls-23" d="m2767.85,1660.54c-1.2,1.7-37.85,134.11-37.85,134.11l76.05,19.32,53.38-120.34s-71.52-61.51-91.58-33.09Z"/>
            <path class="cls-46" d="m2830.8,1711.92l-23.14,65.55c-.3.84-.69,1.62-1.21,2.35-3.14,4.46-15.07,19.02-29.22,5.91-12.84-11.9-24.74-22.57-35.72-24.51-4.93-.87-9.71,2.14-11.05,6.97-3.33,12.03-10.32,39.28-12.79,63.88-.5,4.99,2.95,9.5,7.88,10.44,14.85,2.82,46.35,7.89,72.64,6.04,3.56-.25,6.7-2.39,8.18-5.64,7.25-15.83,29.45-63.87,37.7-76.3,7.75-11.67,26.75-11.34,34.72-10.63,2.61.23,5.18-.61,7.15-2.34,6.97-6.11,20.24-21.71,1.58-40.38-3.91-3.91-3.8-10.21.22-14,8.01-7.53,16.59-20.9,3.23-37.47-13.57-16.85-31.49-14.17-42.46-10.16-4.44,1.62-9.28-.26-11.69-4.32-1.37-2.31-3.77-4.06-7.92-3.7-5.6.48-10.3-4.19-10.2-9.81.19-10.79-3.67-24.43-22.39-30.25-33.22-10.34-53.94,21.75-55.99,45.7-2.05,23.95,34.6,33.11,56.16,31.5,16.39-1.23,28.56,15.02,33.45,22.87,1.55,2.49,1.86,5.54.88,8.3Z"/>
            <path class="cls-28" d="m2835.41,1790.39s5.37-41.58,22.66-43.61c17.3-2.04,34.13,12.18,16.93,35.51-21.39,29.03-39.6,8.1-39.6,8.1Z"/>
          </g>
        </g>
        <g>
          <g>
            <g>
              <rect class="cls-14" x="1402.69" y="1482.71" width="1191.97" height="559.42" transform="translate(-5.67 6.45) rotate(-.18)"/>
              <path class="cls-5" d="m2528.32,1599.26l1.02,318c-25.59.08-46.87,24.83-46.78,53.17,0,.9.19.67.25,4.33l-962.11,3.1c.03-3.66.08-3.43.08-4.33-.09-28.34-21.08-52.1-47.1-52.01-.38,0-1.01-.81-1.01-.81l-1-310.84c43.88-.14,48.03-29.83,47.94-58.17,0-.9-.24-1.62-.28-1.62l962.11-3.1s-.23.72-.23,1.62c.09,28.34,21.52,50.74,47.12,50.66Z"/>
              <g>
                <circle class="cls-11" cx="1999.55" cy="1760.19" r="174.84" transform="translate(-658.98 1929.44) rotate(-45)"/>
                <path class="cls-3" d="m1982.25,1878.18l-.06-18.49c-19.28-.71-38.35-5.2-51.91-11.08-4.84-2.1-7.32-7.52-5.95-12.61l4.64-17.24c1.7-6.32,8.56-9.61,14.61-7.1,13.45,5.59,30.05,9.99,47.93,9.93,18.56-.06,32.39-6.4,32.35-19.3-.04-11.64-10.76-18.53-36.58-25.37-36.84-9.95-63.33-25.91-63.43-58.32-.09-29.26,21.23-51.67,58.34-57.77l-.06-18.49c-.02-5.95,4.79-10.79,10.74-10.81l10.86-.03c5.95-.02,10.79,4.79,10.81,10.74l.05,16.6c17.84.66,30.83,3.66,41.14,7.25,5.28,1.84,8.19,7.51,6.74,12.92l-4.27,15.94c-1.65,6.15-8.2,9.53-14.16,7.3-9.5-3.56-22.92-7.25-40.35-7.19-22.03.07-28.29,9.22-28.26,17.4.03,10.07,13.27,16.95,41.93,25.67,40.94,12.14,57.99,29.07,58.08,59.59.09,28-20.59,53.24-60.85,59.66l.07,20.69c.02,5.95-4.79,10.79-10.74,10.81l-10.86.04c-5.95.02-10.79-4.79-10.81-10.74Z"/>
              </g>
            </g>
            <path class="cls-3" d="m1434.77,1627.98c-.1-.27-.16-.55-.16-.85l-.35-107.86c0-1.32,1.06-2.38,2.37-2.39l290.68-.94c1.31,0,2.39,1.05,2.39,2.37,0,1.32-1.06,2.38-2.37,2.39l-288.3.93.34,105.48c0,1.32-1.06,2.38-2.37,2.39-1.01,0-1.88-.63-2.22-1.51Z"/>
            <path class="cls-3" d="m2267.81,2007.39c-.1-.27-.16-.55-.16-.85,0-1.32,1.06-2.38,2.37-2.39l288.3-.93-.34-105.48c0-1.31,1.06-2.38,2.37-2.39,1.31,0,2.39,1.05,2.39,2.37l.35,107.86c0,.63-.25,1.24-.69,1.69-.44.45-1.05.7-1.68.7l-290.68.94c-1.01,0-1.88-.63-2.22-1.51Z"/>
          </g>
          <g>
            <g>
              <rect class="cls-24" x="1387.62" y="1496.9" width="1191.97" height="559.42" transform="translate(-5.71 6.4) rotate(-.18)"/>
              <path class="cls-5" d="m2513.25,1613.44l1.02,318c-25.59.08-46.87,24.83-46.78,53.17,0,.9.19.67.25,4.33l-962.11,3.1c.03-3.66.08-3.43.08-4.33-.09-28.34-21.08-52.1-47.1-52.01-.38,0-1.01-.81-1.01-.81l-1-310.84c43.88-.14,48.03-29.83,47.94-58.17,0-.9-.24-1.62-.28-1.62l962.11-3.1s-.23.72-.23,1.63c.09,28.34,21.52,50.74,47.12,50.66Z"/>
              <g>
                <circle class="cls-22" cx="1984.48" cy="1774.37" r="174.84" transform="translate(-673.43 1922.94) rotate(-45)"/>
                <path class="cls-3" d="m1967.18,1892.37l-.06-18.49c-19.28-.71-38.35-5.2-51.91-11.08-4.84-2.1-7.32-7.52-5.95-12.61l4.64-17.24c1.7-6.32,8.56-9.61,14.61-7.1,13.45,5.59,30.05,9.99,47.93,9.93,18.56-.06,32.39-6.4,32.34-19.3-.04-11.64-10.76-18.53-36.58-25.37-36.84-9.95-63.33-25.91-63.43-58.32-.09-29.26,21.23-51.67,58.34-57.77l-.06-18.49c-.02-5.95,4.79-10.79,10.74-10.81l10.86-.03c5.95-.02,10.79,4.79,10.81,10.74l.05,16.6c17.84.66,30.83,3.66,41.14,7.25,5.28,1.84,8.19,7.51,6.74,12.92l-4.27,15.94c-1.65,6.15-8.2,9.53-14.16,7.3-9.5-3.56-22.92-7.25-40.35-7.19-22.03.07-28.29,9.22-28.26,17.4.03,10.07,13.27,16.95,41.93,25.67,40.94,12.14,57.99,29.07,58.08,59.59.09,28-20.59,53.24-60.85,59.66l.07,20.69c.02,5.95-4.79,10.79-10.74,10.81l-10.86.04c-5.95.02-10.79-4.79-10.81-10.74Z"/>
              </g>
            </g>
            <path class="cls-3" d="m1419.7,1642.17c-.1-.27-.16-.55-.16-.85l-.35-107.86c0-1.32,1.06-2.38,2.37-2.39l290.68-.94c1.31,0,2.39,1.05,2.39,2.37,0,1.31-1.06,2.38-2.37,2.39l-288.3.93.34,105.48c0,1.32-1.06,2.38-2.37,2.39-1.01,0-1.88-.63-2.22-1.51Z"/>
            <path class="cls-3" d="m2252.74,2021.58c-.1-.27-.16-.55-.16-.85,0-1.31,1.06-2.38,2.37-2.39l288.3-.93-.34-105.48c0-1.31,1.06-2.38,2.37-2.39,1.31,0,2.39,1.05,2.39,2.37l.35,107.86c0,.63-.25,1.24-.69,1.69-.44.45-1.05.7-1.68.7l-290.68.94c-1.01,0-1.88-.63-2.22-1.51Z"/>
          </g>
          <g>
            <g>
              <g>
                <rect class="cls-10" x="1374.33" y="1514.04" width="1191.97" height="559.42" transform="translate(-9.09 10.04) rotate(-.29)"/>
                <path class="cls-21" d="m2499.66,1630.14l1.62,318c-25.59.13-47.1,24.65-46.96,52.99,0,.9-.08.4-.02,4.06l-962.1,4.89c.03-3.66.07-3.16.07-4.06-.14-28.34-20.9-51.92-46.92-51.79-.38,0-.74-.68-.74-.68l-1.58-310.84c43.88-.22,47.7-30.19,47.56-58.53,0-.9-.51-1.89-.56-1.89l962.1-4.89s.05,1,.05,1.9c.14,28.34,21.89,50.97,47.49,50.84Z"/>
                <circle class="cls-12" cx="1970.64" cy="1792.06" r="174.84" transform="translate(-689.99 1918.34) rotate(-45)"/>
              </g>
              <path class="cls-21" d="m1402.87,1661c-.33-.4-.52-.92-.53-1.48l-.55-107.86c0-.63.24-1.24.69-1.68.44-.45,1.05-.7,1.68-.71l294.33-1.5c1.31,0,2.38,1.06,2.39,2.37,0,1.31-1.05,2.38-2.37,2.39l-291.96,1.48.54,105.48c0,1.31-1.05,2.38-2.37,2.39-.75,0-1.42-.34-1.86-.89Z"/>
              <path class="cls-21" d="m2240.27,2038.84c-.33-.4-.52-.92-.53-1.48,0-1.31,1.05-2.38,2.37-2.39l288.3-1.46-.54-105.48c0-1.31,1.05-2.38,2.36-2.39,1.31,0,2.38,1.06,2.39,2.37l.55,107.86c0,.63-.24,1.24-.69,1.68-.44.45-1.05.7-1.68.71l-290.68,1.48c-.75,0-1.42-.34-1.86-.89Z"/>
            </g>
            <g>
              <circle class="cls-42" cx="1613.62" cy="1810.05" r="49.53" transform="translate(-524.22 2954.47) rotate(-76.44)"/>
              <circle class="cls-15" cx="2358.76" cy="1806.27" r="49.53" transform="translate(144.45 3786.97) rotate(-79.26)"/>
            </g>
          </g>
        </g>
        <g>
          <g>
            <circle class="cls-26" cx="1837.73" cy="1255.49" r="104.11" transform="translate(-136.35 2283.36) rotate(-61.85)"/>
            <circle class="cls-35" cx="1837.73" cy="1255.49" r="100.64" transform="translate(-349.51 1667.19) rotate(-45)"/>
            <path class="cls-8" d="m1754.73,1217.59c-.59,0-1.19-.13-1.76-.42-1.93-.97-2.7-3.32-1.73-5.25,16.58-32.84,49.71-53.24,86.48-53.24,5.87,0,11.75.53,17.46,1.57,2.12.39,3.53,2.42,3.15,4.55-.39,2.12-2.41,3.53-4.55,3.15-5.25-.96-10.66-1.44-16.06-1.44-33.8,0-64.26,18.76-79.5,48.95-.69,1.36-2.06,2.15-3.49,2.15Z"/>
            <circle class="cls-9" cx="1839.92" cy="1257.68" r="85.18" transform="translate(-350.42 1669.39) rotate(-45)"/>
          </g>
          <g>
            <circle class="cls-41" cx="2134.07" cy="1132.03" r="181.23" transform="translate(-175.41 1840.58) rotate(-45)"/>
            <circle class="cls-33" cx="2134.07" cy="1132.03" r="175.2" transform="translate(-175.41 1840.58) rotate(-45)"/>
            <path class="cls-8" d="m1989.59,1063.16c-.59,0-1.19-.13-1.76-.42-1.93-.97-2.7-3.32-1.73-5.25,28.36-56.19,85.06-91.1,147.96-91.1,10.03,0,20.09.9,29.88,2.69,2.12.39,3.53,2.42,3.15,4.55-.39,2.12-2.41,3.52-4.55,3.15-9.33-1.7-18.91-2.56-28.48-2.56-59.93,0-113.95,33.26-140.98,86.81-.69,1.36-2.06,2.15-3.49,2.15Z"/>
            <circle class="cls-9" cx="2137.88" cy="1135.85" r="148.29" transform="translate(-177 1844.4) rotate(-45)"/>
          </g>
          <g>
            <circle class="cls-27" cx="2259.06" cy="1536.82" r="186.48" transform="translate(-425.03 2047.52) rotate(-45)"/>
            <circle class="cls-47" cx="2259.06" cy="1536.82" r="180.28" transform="translate(-425.03 2047.52) rotate(-45)"/>
            <path class="cls-8" d="m2110.39,1465.84c-.59,0-1.19-.13-1.76-.42-1.93-.97-2.7-3.32-1.73-5.25,29.17-57.78,87.47-93.68,152.15-93.68,10.32,0,20.66.93,30.72,2.76,2.12.39,3.53,2.42,3.15,4.55-.39,2.12-2.41,3.52-4.55,3.15-9.6-1.75-19.47-2.64-29.32-2.64-61.71,0-117.34,34.25-145.17,89.38-.69,1.36-2.06,2.15-3.49,2.15Z"/>
            <circle class="cls-9" cx="2262.98" cy="1540.75" r="152.59" transform="translate(-426.66 2051.45) rotate(-45)"/>
          </g>
          <g>
            <circle class="cls-38" cx="2498.29" cy="1282.79" r="136.64"/>
            <circle class="cls-13" cx="2498.29" cy="1282.79" r="132.09" transform="translate(-175.34 2142.28) rotate(-45)"/>
            <path class="cls-8" d="m2389.36,1231.83c-.59,0-1.19-.13-1.76-.42-1.93-.97-2.7-3.32-1.73-5.25,21.55-42.69,64.62-69.21,112.41-69.21,7.63,0,15.27.69,22.7,2.04,2.12.39,3.53,2.42,3.14,4.55-.39,2.13-2.41,3.53-4.55,3.15-6.97-1.27-14.13-1.92-21.3-1.92-44.82,0-85.22,24.88-105.43,64.92-.69,1.36-2.06,2.15-3.49,2.15Z"/>
            <circle class="cls-9" cx="2501.17" cy="1285.67" r="111.8" transform="translate(-148.52 343.36) rotate(-7.63)"/>
          </g>
        </g>
      </g>
    </g>
  </g>
</svg>