<svg width="27" height="24" viewBox="0 0 27 24" fill="none" xmlns="http://www.w3.org/2000/svg">
<path d="M13.32 18L15.06 16.0227L12.78 13.4318L11.04 15.4091V16.3636H12.48V18H13.32ZM19.92 5.72727C19.76 5.54545 19.595 5.55114 19.425 5.74432L14.175 11.7102C14.005 11.9034 14 12.0909 14.16 12.2727C14.32 12.4545 14.485 12.4489 14.655 12.2557L19.905 6.28977C20.075 6.09659 20.08 5.90909 19.92 5.72727ZM21.12 15.8523V19.0909C21.12 20.4432 20.6975 21.5994 19.8525 22.5597C19.0075 23.5199 17.99 24 16.8 24H4.32C3.13 24 2.1125 23.5199 1.2675 22.5597C0.4225 21.5994 0 20.4432 0 19.0909V4.90909C0 3.55682 0.4225 2.40057 1.2675 1.44034C2.1125 0.480114 3.13 0 4.32 0H16.8C17.43 0 18.015 0.142045 18.555 0.426136C18.705 0.505682 18.795 0.636364 18.825 0.818182C18.855 1.01136 18.81 1.17614 18.69 1.3125L17.955 2.14773C17.815 2.30682 17.655 2.35227 17.475 2.28409C17.245 2.21591 17.02 2.18182 16.8 2.18182H4.32C3.66 2.18182 3.095 2.44886 2.625 2.98295C2.155 3.51705 1.92 4.15909 1.92 4.90909V19.0909C1.92 19.8409 2.155 20.483 2.625 21.017C3.095 21.5511 3.66 21.8182 4.32 21.8182H16.8C17.46 21.8182 18.025 21.5511 18.495 21.017C18.965 20.483 19.2 19.8409 19.2 19.0909V16.9432C19.2 16.7955 19.245 16.6705 19.335 16.5682L20.295 15.4773C20.445 15.3068 20.62 15.267 20.82 15.358C21.02 15.4489 21.12 15.6136 21.12 15.8523ZM19.68 3.27273L24 8.18182L13.92 19.6364H9.6V14.7273L19.68 3.27273ZM26.34 5.52273L24.96 7.09091L20.64 2.18182L22.02 0.613636C22.3 0.295455 22.64 0.136364 23.04 0.136364C23.44 0.136364 23.78 0.295455 24.06 0.613636L26.34 3.20455C26.62 3.52273 26.76 3.90909 26.76 4.36364C26.76 4.81818 26.62 5.20455 26.34 5.52273Z" fill="url(#paint0_angular_410_1419)"/>
<defs>
<radialGradient id="paint0_angular_410_1419" cx="0" cy="0" r="1" gradientUnits="userSpaceOnUse" gradientTransform="translate(13.38 12) rotate(90) scale(12 13.38)">
<stop offset="0.0607637" stop-color="#FF9C2C"/>
<stop offset="0.300347" stop-color="#747679"/>
<stop offset="0.63368" stop-color="#DA9241"/>
</radialGradient>
</defs>
</svg>
