<svg width="24" height="24" viewBox="0 0 24 24" fill="none" xmlns="http://www.w3.org/2000/svg">
<g clip-path="url(#clip0_410_1408)">
<path d="M12 24C9.82813 24 7.82031 23.4648 5.97656 22.3945C4.13281 21.3242 2.67578 19.8672 1.60547 18.0234C0.535156 16.1797 0 14.1719 0 12C0 9.82813 0.535156 7.82031 1.60547 5.97656C2.67578 4.13281 4.13281 2.67578 5.97656 1.60547C7.82031 0.535156 9.82813 0 12 0C14.1719 0 16.1797 0.535156 18.0234 1.60547C19.8672 2.67578 21.3242 4.13281 22.3945 5.97656C23.4648 7.82031 24 9.82813 24 12C24 14.1719 23.4648 16.1797 22.3945 18.0234C21.3242 19.8672 19.8672 21.3242 18.0234 22.3945C16.1797 23.4648 14.1719 24 12 24ZM12 3C10.375 3 8.87109 3.40234 7.48828 4.20703C6.10547 5.01172 5.01172 6.10547 4.20703 7.48828C3.40234 8.87109 3 10.375 3 12C3 13.625 3.40234 15.1289 4.20703 16.5117C5.01172 17.8945 6.10547 18.9883 7.48828 19.793C8.87109 20.5977 10.375 21 12 21C13.625 21 15.1289 20.5977 16.5117 19.793C17.8945 18.9883 18.9883 17.8945 19.793 16.5117C20.5977 15.1289 21 13.625 21 12C21 10.375 20.5977 8.87109 19.793 7.48828C18.9883 6.10547 17.8945 5.01172 16.5117 4.20703C15.1289 3.40234 13.625 3 12 3ZM11.9531 15.4453C11.875 15.7266 11.7578 15.9453 11.6016 16.1016C11.2891 16.4141 10.9063 16.5391 10.4531 16.4766C10.0156 16.5078 9.65625 16.3828 9.375 16.1016C9.21875 15.9453 9.10938 15.7344 9.04688 15.4688L6.375 12.7969C6.10938 12.5313 5.97656 12.2109 5.97656 11.8359C5.97656 11.4609 6.10938 11.1406 6.375 10.875C6.64062 10.6094 6.96094 10.4766 7.33594 10.4766C7.71094 10.4766 8.03125 10.6094 8.29688 10.875L10.4766 13.0547L15.6797 7.875C15.9453 7.60938 16.2656 7.47656 16.6406 7.47656C17.0156 7.47656 17.3359 7.60938 17.6016 7.875C17.8672 8.14062 18 8.46094 18 8.83594C18 9.21094 17.8672 9.53125 17.6016 9.79688L11.9531 15.4453Z" fill="url(#paint0_angular_410_1408)"/>
</g>
<defs>
<radialGradient id="paint0_angular_410_1408" cx="0" cy="0" r="1" gradientUnits="userSpaceOnUse" gradientTransform="translate(12 12) rotate(90) scale(12)">
<stop offset="0.16493" stop-color="#98ED58"/>
<stop offset="0.388889" stop-color="#747679"/>
<stop offset="0.805555" stop-color="#8BC364"/>
</radialGradient>
<clipPath id="clip0_410_1408">
<rect width="24" height="24" fill="white"/>
</clipPath>
</defs>
</svg>
