<svg width="30" height="32" viewBox="0 0 30 32" fill="none" xmlns="http://www.w3.org/2000/svg">
<path d="M19.863 9.67075C19.7224 9.10825 19.6287 8.79575 19.6287 8.79575C19.4763 8.2145 19.0896 8.2145 18.5154 8.1145L15.4041 7.69575C15.0173 7.627 15.0173 7.627 14.865 7.27075C14.3552 6.04575 14.197 5.33325 13.6404 5.33325H7.60522C7.04858 5.33325 6.89624 6.04575 6.38647 7.277C6.23413 7.627 6.23413 7.627 5.84741 7.702L2.73022 8.12075C2.16186 8.22075 1.7517 8.277 1.59936 8.85825C1.59936 8.85825 1.52905 9.1145 1.38256 9.67075C1.19506 10.4145 1.11889 10.3333 1.76342 10.3333H19.4822C20.1267 10.3395 20.0564 10.4145 19.863 9.67075Z" fill="url(#paint0_angular_410_1404)"/>
<path d="M17.9386 12H3.47765C2.50499 12 2.45812 12.1375 2.51671 12.9187L3.61241 28.0812C3.70616 28.85 3.77648 29.0063 4.6378 29.0063H16.7784C17.6398 29.0063 17.7101 28.85 17.8038 28.0812L18.8995 12.9187C18.9581 12.1312 18.9112 12 17.9386 12Z" fill="url(#paint1_angular_410_1404)"/>
<defs>
<radialGradient id="paint0_angular_410_1404" cx="0" cy="0" r="1" gradientUnits="userSpaceOnUse" gradientTransform="translate(10.6241 7.83571) rotate(90) scale(2.50246 9.37406)">
<stop offset="0.112847" stop-color="#FF0606"/>
<stop offset="0.41493" stop-color="#747679"/>
<stop offset="0.69618" stop-color="#BE3A3C"/>
</radialGradient>
<radialGradient id="paint1_angular_410_1404" cx="0" cy="0" r="1" gradientUnits="userSpaceOnUse" gradientTransform="translate(10.7081 20.5031) rotate(90) scale(8.50313 8.20812)">
<stop offset="0.112847" stop-color="#FF0606"/>
<stop offset="0.41493" stop-color="#747679"/>
<stop offset="0.69618" stop-color="#BE3A3C"/>
</radialGradient>
</defs>
</svg>
