<?xml version="1.0" ?><svg id="Layer_1" style="enable-background:new 0 0 512 512;" version="1.1" viewBox="0 0 512 512" xml:space="preserve" xmlns="http://www.w3.org/2000/svg" xmlns:xlink="http://www.w3.org/1999/xlink"><style type="text/css">
	.st0{fill:#232323;}
	.st1{fill:#F4908C;}
	.st2{fill:#FBD502;}
	.st3{fill:#2E4356;}
	.st4{fill:#CCE134;}
</style><g><g><g><polygon class="st0" id="XMLID_10_" points="19.6,344.7 6,316.3 172.7,237.2 203.8,284.9 432.2,152.3 448.1,179.5 193.7,327.2      161.3,277.5    "/><polygon class="st0" id="XMLID_9_" points="506,127.9 412.6,124.1 464.8,211.8    "/></g><g><polygon class="st1" id="XMLID_8_" points="232.1,391.8 232.1,391.8 290.5,391.8 290.5,287.8 232.1,321.7    "/><polygon class="st1" id="XMLID_7_" points="290.5,120.2 232.1,120.2 232.1,120.2 232.1,251.7 290.5,217.8    "/><polygon class="st2" id="XMLID_6_" points="320.4,391.8 378.8,391.8 378.8,236.5 320.4,270.5    "/><polygon class="st2" id="XMLID_5_" points="378.8,120.2 320.4,120.2 320.4,200.5 378.8,166.6    "/><polygon class="st3" id="XMLID_4_" points="202.3,256.1 202.3,120.2 143.9,120.2 143.9,234.9 177.9,218.6    "/><polygon class="st3" id="XMLID_3_" points="156.1,296.1 143.9,302 143.9,391.8 202.3,391.8 202.3,339 189,346.7    "/><polygon class="st4" id="XMLID_2_" points="114.1,120.2 55.7,120.2 55.7,277.1 114.1,249.1    "/><polygon class="st4" id="XMLID_1_" points="55.7,391.8 55.7,391.8 114.1,391.8 114.1,316.3 55.7,344.2    "/></g></g></g></svg>