<svg viewBox="0 0 512 512" xmlns="http://www.w3.org/2000/svg"><path d="M383.1 448h-320V128h156.1l64-64H63.1C28.65 64 0 92.65 0 128v320c0 35.35 28.65 64 63.1 64h319.1c35.34 0 63.1-28.65 63.1-64l-.004-220.1-63.1 63.99V448zM497.9 42.19l-28.13-28.14c-18.75-18.75-49.14-18.75-67.88 0l-38.62 38.63 96.01 96.01 38.62-38.63c18.8-18.73 18.8-49.12 0-67.87zM147.3 274.4l-19.04 95.22c-1.678 8.396 5.725 15.8 14.12 14.12l95.23-19.04a23.992 23.992 0 0 0 12.26-6.562l186.8-186.8-96.01-96.01L153.8 262.2c-3.3 3.3-5.6 7.6-6.5 12.2z" fill="#98ed58" class="fill-000000"></path></svg>